# Blender v2.79 (sub 0) OBJ File: 'albinssten1,0.blend'
# www.blender.org
mtllib albinssten1,0.mtl
o Cube
v 0.784611 -1.000000 -0.697895
v 1.119848 -1.000000 1.349711
v -1.281358 -1.000000 1.250010
v -0.833515 -1.000000 -1.162015
v 0.631868 0.343447 -0.671814
v 0.698764 0.663883 0.483529
v -0.774267 0.434015 0.856741
v -0.728653 0.385543 -0.312790
v 1.155242 -1.000000 -0.026990
v 0.000000 -1.000000 -1.488386
v 0.828657 0.000000 -0.905990
v 0.000000 -1.000000 1.268044
v 1.000000 0.000000 1.000000
v -2.070585 -1.000000 -0.152516
v -1.000000 0.000000 1.000000
v -0.834874 0.000000 -0.696906
v 0.739868 0.489420 0.000001
v -0.201116 0.531368 -0.596672
v -0.000001 0.590515 1.000000
v -1.000000 0.519368 -0.000000
v -0.265617 0.000000 -0.589774
v -1.733760 0.000000 0.072631
v -0.000000 0.000000 1.000000
v 1.000000 0.000000 0.000000
v -0.000000 1.000000 0.000000
v 0.000000 -1.000000 -0.000000
vt 0.000000 0.000000
vt 1.000000 0.000000
vt 1.000000 1.000000
vt 0.000000 1.000000
vt 0.000000 0.000000
vt 1.000000 0.000000
vt 1.000000 1.000000
vt 0.000000 1.000000
vt 0.000000 0.000000
vt 1.000000 0.000000
vt 1.000000 1.000000
vt 0.000000 1.000000
vt 0.000000 0.000000
vt 1.000000 0.000000
vt 0.000000 1.000000
vt 0.000000 0.000000
vt 1.000000 1.000000
vt 0.000000 1.000000
vt 0.000000 0.000000
vt 1.000000 0.000000
vt 1.000000 1.000000
vt 0.000000 0.000000
vt 1.000000 0.000000
vt 1.000000 1.000000
vt 0.000000 1.000000
vt 0.000000 0.000000
vt 1.000000 0.000000
vt 1.000000 1.000000
vt 0.000000 1.000000
vt 0.000000 0.000000
vt 1.000000 0.000000
vt 1.000000 1.000000
vt 0.000000 1.000000
vt 0.000000 0.000000
vt 1.000000 0.000000
vt 0.000000 1.000000
vt 0.000000 0.000000
vt 1.000000 0.000000
vt 1.000000 1.000000
vt 0.000000 0.000000
vt 1.000000 0.000000
vt 1.000000 1.000000
vt 0.000000 1.000000
vt 0.000000 0.000000
vt 1.000000 0.000000
vt 1.000000 1.000000
vt 0.000000 1.000000
vt 0.000000 0.000000
vt 1.000000 0.000000
vt 1.000000 1.000000
vt 0.000000 1.000000
vt 0.000000 0.000000
vt 1.000000 0.000000
vt 1.000000 1.000000
vt 0.000000 1.000000
vt 0.000000 0.000000
vt 1.000000 0.000000
vt 1.000000 1.000000
vt 0.000000 1.000000
vt 0.000000 0.000000
vt 1.000000 1.000000
vt 0.000000 1.000000
vt 1.000000 0.000000
vt 1.000000 1.000000
vt 0.000000 1.000000
vt 0.000000 0.000000
vt 1.000000 0.000000
vt 0.000000 1.000000
vt 1.000000 0.000000
vt 1.000000 1.000000
vt 0.000000 1.000000
vt 1.000000 0.000000
vt 0.000000 1.000000
vt 0.000000 0.000000
vt 1.000000 0.000000
vt 1.000000 1.000000
vt 1.000000 0.000000
vt 1.000000 1.000000
vt 0.000000 1.000000
vt 1.000000 0.000000
vt 1.000000 1.000000
vt 0.000000 1.000000
vn 0.0000 -1.0000 0.0000
vn -0.3444 0.8959 0.2806
vn 0.9033 0.4283 -0.0253
vn -0.0933 0.1580 0.9830
vn -0.4765 0.6471 -0.5952
vn -0.1293 0.5468 -0.8272
vn -0.1977 0.4042 -0.8931
vn -0.1731 0.2231 -0.9593
vn 0.2301 0.3403 -0.9117
vn -0.5997 0.3491 -0.7200
vn -0.8090 0.2566 0.5288
vn -0.6141 0.7004 0.3638
vn -0.0077 0.2518 0.9678
vn -0.0368 0.2929 0.9554
vn 0.2475 0.4191 0.8736
vn 0.9902 0.1386 0.0147
vn 0.9454 0.0231 -0.3249
vn 0.8356 0.5134 -0.1954
vn 0.3382 0.9280 0.1564
vn 0.3379 0.8121 -0.4758
vn -0.4045 0.7477 -0.5266
usemtl Material
s off
f 26/1/1 12/2/1 3/3/1 14/4/1
f 25/5/2 20/6/2 7/7/2 19/8/2
f 24/9/3 17/10/3 6/11/3 13/12/3
f 23/13/4 19/14/4 7/7/4 15/15/4
f 22/16/5 20/6/5 8/17/5 16/18/5
f 21/19/6 10/20/6 4/21/6 16/18/6
f 18/22/7 21/23/7 16/24/7 8/25/7
f 5/26/8 11/27/8 21/28/8 18/29/8
f 11/30/9 1/31/9 10/32/9 21/33/9
f 14/34/10 22/35/10 16/24/10 4/36/10
f 3/37/11 15/38/11 22/39/11 14/4/11
f 15/40/12 7/41/12 20/42/12 22/43/12
f 12/44/13 23/45/13 15/46/13 3/47/13
f 2/48/14 13/49/14 23/50/14 12/51/14
f 13/52/15 6/53/15 19/54/15 23/55/15
f 9/56/16 24/57/16 13/58/16 2/59/16
f 1/60/17 11/27/17 24/61/17 9/62/17
f 11/30/18 5/63/18 17/64/18 24/65/18
f 17/66/19 25/67/19 19/54/19 6/68/19
f 5/26/20 18/69/20 25/70/20 17/71/20
f 18/22/21 8/72/21 20/42/21 25/73/21
f 10/74/1 26/75/1 14/76/1 4/36/1
f 1/60/1 9/77/1 26/78/1 10/79/1
f 9/56/1 2/80/1 12/81/1 26/82/1
