# Blender v2.79 (sub 0) OBJ File: 'treesprout.blend'
# www.blender.org
mtllib treesprout.mtl
o Cube_Cube.001
v -0.055889 -0.034593 0.055889
v -0.043074 0.170491 0.042452
v -0.055889 -0.034593 -0.055889
v -0.043074 0.185068 -0.042452
v 0.055889 -0.034593 0.055889
v 0.043074 0.170491 0.042452
v 0.055889 -0.034593 -0.055889
v 0.043074 0.185068 -0.042452
v -0.021221 0.410777 0.052709
v -0.021221 0.404358 0.010756
v 0.021221 0.404358 0.010756
v 0.021221 0.410777 0.052709
v -0.008362 0.530870 0.020274
v -0.008362 0.520667 0.007022
v 0.008362 0.520667 0.007022
v 0.008362 0.530870 0.020274
v -0.002520 0.562819 -0.011700
v -0.002520 0.559745 -0.015693
v 0.002520 0.559745 -0.015693
v 0.002520 0.562819 -0.011700
v 0.012732 0.410777 0.052709
v 0.004244 0.410777 0.052709
v -0.004244 0.410777 0.052709
v -0.012732 0.410777 0.052709
v 0.005017 0.530870 0.020274
v 0.001672 0.530870 0.020274
v -0.001672 0.530870 0.020274
v -0.005017 0.530870 0.020274
v 0.010934 0.506852 0.026761
v 0.013506 0.482833 0.033248
v 0.016077 0.458814 0.039735
v 0.018649 0.434795 0.046222
v -0.018649 0.434795 0.046222
v -0.016077 0.458814 0.039735
v -0.013506 0.482833 0.033248
v -0.010934 0.506852 0.026761
v -0.011189 0.434795 0.046222
v -0.009646 0.458814 0.039735
v -0.008103 0.482833 0.033248
v -0.006560 0.506852 0.026761
v -0.003730 0.434795 0.046222
v -0.003215 0.458814 0.039735
v -0.002701 0.482833 0.033248
v 0.000474 0.516196 0.038196
v 0.003730 0.434795 0.046222
v 0.003215 0.458814 0.039735
v 0.002701 0.482833 0.033248
v 0.001421 0.516196 0.038196
v 0.011189 0.434795 0.046222
v 0.009646 0.458814 0.039735
v 0.008103 0.482833 0.033248
v 0.006560 0.506852 0.026761
v 0.001478 0.514050 0.025313
v 0.000493 0.514050 0.025313
v -0.000493 0.514050 0.025313
v -0.001478 0.514050 0.025313
v -0.001932 0.506977 0.027224
v -0.002387 0.499903 0.029134
v -0.000796 0.499903 0.029134
v 0.000796 0.499903 0.029134
v 0.001932 0.506977 0.027224
v 0.002387 0.499903 0.029134
v -0.000474 0.516196 0.038196
v -0.001421 0.516196 0.038196
v -0.001858 0.511312 0.043277
v -0.002295 0.506429 0.048358
v -0.000765 0.506429 0.048358
v 0.000765 0.506429 0.048358
v 0.001858 0.511312 0.043277
v 0.002295 0.506429 0.048358
v 0.000778 0.548875 0.074026
v 0.000259 0.548875 0.074026
v -0.000259 0.548875 0.074026
v -0.000778 0.548875 0.074026
v -0.001017 0.546201 0.076807
v -0.001257 0.543528 0.079589
v -0.000339 0.546201 0.076807
v -0.000419 0.543528 0.079589
v 0.000339 0.546201 0.076807
v 0.000419 0.543528 0.079589
v 0.001017 0.546201 0.076807
v 0.001257 0.543528 0.079589
v -0.002566 0.564228 0.126931
v 0.000664 0.564228 0.126931
v -0.002566 0.569214 0.124350
v 0.000664 0.569214 0.124350
v -0.002566 0.573168 0.119437
v 0.000664 0.573168 0.119437
v -0.002566 0.575769 0.112592
v 0.000664 0.575769 0.112592
v -0.002566 0.576807 0.104368
v 0.000664 0.576807 0.104368
v -0.002566 0.576198 0.095432
v 0.000664 0.576198 0.095432
v -0.002566 0.573990 0.086507
v 0.000664 0.573990 0.086507
v -0.002566 0.570364 0.078317
v 0.000664 0.570364 0.078317
v -0.002566 0.565611 0.071525
v 0.000664 0.565611 0.071525
v -0.002566 0.560119 0.066682
v 0.000664 0.560119 0.066682
v -0.002566 0.554331 0.064179
v 0.000664 0.554331 0.064179
v -0.002566 0.548716 0.064220
v 0.000664 0.548716 0.064220
v -0.002566 0.543730 0.066801
v 0.000664 0.543730 0.066801
v -0.002566 0.539776 0.071713
v 0.000664 0.539776 0.071713
v -0.002499 0.537174 0.078559
v 0.000731 0.537174 0.078559
v -0.002499 0.536136 0.086783
v 0.000731 0.536136 0.086783
v -0.002566 0.536747 0.095719
v 0.000664 0.536747 0.095719
v -0.002566 0.538954 0.104644
v 0.000664 0.538954 0.104644
v -0.002566 0.542581 0.112834
v 0.000664 0.542581 0.112834
v -0.002566 0.547333 0.119626
v 0.000664 0.547333 0.119626
v -0.002566 0.552826 0.124469
v 0.000664 0.552826 0.124469
v -0.002566 0.558614 0.126972
v 0.000664 0.558614 0.126972
v 0.002432 0.555096 -0.019035
v -0.002400 0.555096 -0.019035
v 0.002432 0.555978 -0.028427
v -0.002400 0.555978 -0.028427
v 0.002432 0.560325 -0.038482
v -0.002400 0.560325 -0.038482
v 0.002432 0.567788 -0.048385
v -0.002400 0.567788 -0.048385
v 0.002432 0.577760 -0.057335
v -0.002400 0.577760 -0.057335
v 0.002432 0.589433 -0.064606
v -0.002400 0.589433 -0.064606
v 0.002533 0.601863 -0.069611
v -0.002299 0.601863 -0.069611
v 0.002533 0.614042 -0.071941
v -0.002299 0.614042 -0.071941
v 0.002432 0.624985 -0.071407
v -0.002400 0.624985 -0.071407
v 0.002432 0.633803 -0.068056
v -0.002400 0.633803 -0.068056
v 0.002432 0.639782 -0.062158
v -0.002400 0.639782 -0.062158
v 0.002432 0.642439 -0.054190
v -0.002400 0.642439 -0.054190
v 0.002432 0.641558 -0.044798
v -0.002400 0.641558 -0.044798
v 0.002432 0.637210 -0.034743
v -0.002400 0.637210 -0.034743
v 0.002432 0.629748 -0.024839
v -0.002400 0.629748 -0.024839
v 0.002432 0.619776 -0.015889
v -0.002400 0.619776 -0.015889
v 0.002432 0.608102 -0.008618
v -0.002400 0.608102 -0.008618
v 0.002432 0.595672 -0.003615
v -0.002400 0.595672 -0.003615
v 0.002432 0.583493 -0.001285
v -0.002400 0.583493 -0.001285
v 0.002432 0.572551 -0.001818
v -0.002400 0.572551 -0.001818
v 0.002432 0.563733 -0.005168
v -0.002400 0.563733 -0.005168
v 0.002432 0.557753 -0.011067
v -0.002400 0.557753 -0.011067
v 0.000016 0.555096 -0.019035
v 0.000016 0.555978 -0.028427
v 0.000016 0.560325 -0.038482
v 0.000016 0.567788 -0.048385
v 0.000016 0.577760 -0.057335
v 0.000016 0.589433 -0.064606
v 0.000117 0.601863 -0.069611
v 0.000117 0.614042 -0.071941
v 0.000016 0.624985 -0.071407
v 0.000016 0.633803 -0.068056
v 0.000016 0.639782 -0.062158
v 0.000016 0.642439 -0.054190
v 0.000016 0.641558 -0.044798
v 0.000016 0.637210 -0.034743
v 0.000016 0.629748 -0.024839
v 0.000016 0.619776 -0.015889
v 0.000016 0.608102 -0.008618
v 0.000016 0.595672 -0.003615
v 0.000016 0.583493 -0.001285
v 0.000016 0.572551 -0.001818
v 0.000016 0.563733 -0.005168
v 0.000016 0.557753 -0.011067
v -0.000951 0.564228 0.126931
v -0.000951 0.569214 0.124350
v -0.000951 0.573168 0.119437
v -0.000951 0.575769 0.112592
v -0.000951 0.576807 0.104368
v -0.000951 0.576198 0.095432
v -0.000951 0.573990 0.086507
v -0.000951 0.570364 0.078317
v -0.000951 0.565611 0.071525
v -0.000951 0.560119 0.066682
v -0.000951 0.554331 0.064179
v -0.000951 0.548716 0.064220
v -0.000951 0.543730 0.066801
v -0.000951 0.539776 0.071713
v -0.000884 0.537174 0.078559
v -0.000884 0.536136 0.086783
v -0.000951 0.536747 0.095719
v -0.000951 0.538954 0.104644
v -0.000951 0.542581 0.112834
v -0.000951 0.547333 0.119626
v -0.000951 0.552826 0.124469
v -0.000951 0.558614 0.126972
v 0.000000 -0.034593 -0.055889
v 0.000000 0.185068 -0.042452
v 0.000000 -0.034593 0.055889
v 0.000000 0.170491 0.042452
v 0.000000 0.404358 0.010756
v 0.000000 0.520667 0.007022
v 0.000000 0.559745 -0.015693
v 0.000000 0.562819 -0.011700
vt 0.938152 0.501098
vt 0.790004 0.468209
vt 0.789937 0.380791
vt 0.962478 0.434481
vt 0.952217 0.623555
vt 0.775814 0.673428
vt 0.776964 0.631103
vt 0.931247 0.607356
vt 0.785204 0.549407
vt 0.929452 0.545547
vt 0.950849 0.526769
vt 0.785789 0.509110
vt 0.482895 0.481821
vt 0.495511 0.409841
vt 0.487831 0.369398
vt 0.203106 0.440667
vt 0.193563 0.413378
vt 0.489112 0.529468
vt 0.485369 0.500377
vt 0.480840 0.489394
vt 0.478603 0.485280
vt 0.478868 0.483413
vt 0.792715 0.334428
vt 0.500504 0.597649
vt 0.203595 0.532608
vt 0.210760 0.587893
vt 0.011611 0.556305
vt 0.011627 0.536614
vt 0.264026 0.545528
vt 0.328079 0.540557
vt 0.389185 0.536910
vt 0.443331 0.532553
vt 0.440064 0.474380
vt 0.386745 0.474360
vt 0.325379 0.476341
vt 0.260444 0.477378
vt 0.202513 0.496086
vt 0.263677 0.532829
vt 0.203671 0.525382
vt 0.001736 0.494628
vt 0.010983 0.498762
vt 0.010911 0.521471
vt 0.000955 0.529532
vt 0.203020 0.503363
vt 0.203205 0.510660
vt 0.203399 0.518121
vt 0.261454 0.490058
vt 0.250848 0.514099
vt 0.251282 0.518229
vt 0.324448 0.489146
vt 0.324350 0.502049
vt 0.275464 0.508234
vt 0.274789 0.503013
vt 0.326047 0.527851
vt 0.263488 0.522612
vt 0.275529 0.518689
vt 0.438894 0.484860
vt 0.386192 0.486742
vt 0.438624 0.495465
vt 0.386127 0.499164
vt 0.439246 0.506662
vt 0.386582 0.511637
vt 0.324836 0.514984
vt 0.250698 0.505817
vt 0.250688 0.509968
vt 0.440894 0.519001
vt 0.387642 0.524238
vt 0.262360 0.500265
vt 0.263778 0.511032
vt 0.264660 0.510124
vt 0.263808 0.511763
vt 0.261768 0.511802
vt 0.275635 0.513441
vt 0.264791 0.510944
vt 0.264826 0.511754
vt 0.261743 0.511185
vt 0.261692 0.511597
vt 0.261686 0.511397
vt 0.261837 0.511459
vt 0.261828 0.511392
vt 0.261781 0.511406
vt 0.261695 0.511342
vt 0.261790 0.511588
vt 0.261837 0.511597
vt 0.261690 0.511448
vt 0.261699 0.511554
vt 0.261839 0.511528
vt 0.264773 0.512584
vt 0.261789 0.511540
vt 0.000000 0.000000
vt 0.000000 0.000000
vt 0.000000 0.000000
vt 0.000000 0.000000
vt 0.261785 0.511455
vt 0.000000 0.000000
vt 0.000000 0.000000
vt 0.000000 0.000000
vt 0.261713 0.511659
vt 0.204344 0.616048
vt 0.003829 0.561207
vt 0.494676 0.636991
vt 0.995192 0.422027
vt 0.498430 0.147473
vt 0.510770 0.147967
vt 0.519723 0.185166
vt 0.508233 0.190177
vt 0.546305 0.221045
vt 0.537353 0.229894
vt 0.589780 0.251774
vt 0.583737 0.262692
vt 0.646198 0.274093
vt 0.642753 0.285921
vt 0.710661 0.285749
vt 0.709487 0.297896
vt 0.777658 0.286106
vt 0.778625 0.298223
vt 0.841875 0.274939
vt 0.845072 0.286678
vt 0.897920 0.253346
vt 0.903580 0.264131
vt 0.940852 0.223313
vt 0.949172 0.232235
vt 0.968061 0.188543
vt 0.978913 0.194197
vt 0.978039 0.151768
vt 0.990405 0.152320
vt 0.969275 0.114520
vt 0.980789 0.109431
vt 0.941932 0.078908
vt 0.950860 0.069931
vt 0.897910 0.048398
vt 0.904004 0.037442
vt 0.841242 0.025739
vt 0.844741 0.013636
vt 0.776999 0.013450
vt 0.778038 0.001585
vt 0.710659 0.013584
vt 0.709607 0.001584
vt 0.646976 0.025355
vt 0.643690 0.013718
vt 0.591384 0.047345
vt 0.585727 0.036615
vt 0.548306 0.077119
vt 0.540100 0.068120
vt 0.520516 0.111312
vt 0.509727 0.105585
vt 0.509853 0.146788
vt 0.520203 0.110161
vt 0.547771 0.075685
vt 0.590931 0.045979
vt 0.646718 0.024242
vt 0.710934 0.013214
vt 0.778032 0.013450
vt 0.842370 0.025365
vt 0.898524 0.047964
vt 0.941390 0.079205
vt 0.968546 0.114811
vt 0.977179 0.151999
vt 0.967112 0.188662
vt 0.939855 0.223053
vt 0.896414 0.252342
vt 0.841006 0.274110
vt 0.776954 0.285347
vt 0.709457 0.285512
vt 0.645073 0.273315
vt 0.588616 0.250713
vt 0.545116 0.219803
vt 0.518215 0.184066
vt 0.012014 0.144797
vt 0.021711 0.110258
vt 0.047641 0.077732
vt 0.088291 0.049788
vt 0.141237 0.029775
vt 0.201691 0.019128
vt 0.264862 0.019348
vt 0.325457 0.030621
vt 0.378338 0.051967
vt 0.418696 0.081445
vt 0.444247 0.115020
vt 0.452343 0.150069
vt 0.442821 0.184603
vt 0.417104 0.216980
vt 0.376143 0.244533
vt 0.323913 0.264991
vt 0.263545 0.275530
vt 0.199919 0.275679
vt 0.139191 0.264415
vt 0.086411 0.242720
vt 0.045369 0.213568
vt 0.019955 0.179921
vt 0.012075 0.105715
vt 0.022312 0.110993
vt 0.013564 0.145648
vt 0.001929 0.145330
vt 0.040331 0.070055
vt 0.048084 0.078538
vt 0.022442 0.180602
vt 0.088980 0.050717
vt 0.141417 0.029985
vt 0.201592 0.019238
vt 0.264160 0.019099
vt 0.324719 0.030598
vt 0.378142 0.051872
vt 0.419615 0.080563
vt 0.445054 0.114336
vt 0.453837 0.149405
vt 0.444954 0.184105
vt 0.419014 0.216622
vt 0.378533 0.244951
vt 0.325762 0.265369
vt 0.265300 0.275971
vt 0.202255 0.275654
vt 0.141709 0.264383
vt 0.088537 0.243411
vt 0.047918 0.214236
vt 0.083667 0.040565
vt 0.138356 0.018997
vt 0.200630 0.007915
vt 0.265132 0.007915
vt 0.328000 0.019189
vt 0.383875 0.041543
vt 0.428053 0.072148
vt 0.455874 0.109507
vt 0.465497 0.149764
vt 0.455194 0.189421
vt 0.426830 0.225067
vt 0.383872 0.255107
vt 0.328789 0.276422
vt 0.266220 0.287380
vt 0.201124 0.287079
vt 0.138441 0.275510
vt 0.082825 0.253660
vt 0.039511 0.222576
vt 0.011672 0.185451
vt 0.000379 0.144177
vt 0.011539 0.104842
vt 0.039877 0.069264
vt 0.083037 0.039597
vt 0.138247 0.018715
vt 0.200761 0.007713
vt 0.265987 0.007904
vt 0.328768 0.019510
vt 0.384122 0.041778
vt 0.427128 0.073129
vt 0.455078 0.110285
vt 0.463969 0.150635
vt 0.452995 0.189982
vt 0.424753 0.225489
vt 0.381336 0.254683
vt 0.326990 0.275734
vt 0.264630 0.287195
vt 0.198813 0.287195
vt 0.135845 0.275533
vt 0.080639 0.252963
vt 0.036943 0.221956
vt 0.009086 0.184617
vt 0.506675 0.189029
vt 0.497510 0.146109
vt 0.536166 0.228695
vt 0.582530 0.261629
vt 0.641546 0.285142
vt 0.708264 0.297725
vt 0.778111 0.297726
vt 0.844282 0.285508
vt 0.901937 0.263108
vt 0.947984 0.232076
vt 0.977916 0.194359
vt 0.989518 0.152587
vt 0.980037 0.109773
vt 0.950330 0.070370
vt 0.904651 0.037143
vt 0.845874 0.013567
vt 0.779221 0.001299
vt 0.709966 0.001088
vt 0.643522 0.012529
vt 0.585298 0.035209
vt 0.539538 0.066699
vt 0.509421 0.104398
vn -0.9982 0.0602 0.0045
vn 0.0000 0.0611 -0.9981
vn 0.9982 0.0602 0.0045
vn 0.0000 0.0654 0.9979
vn 0.0000 -1.0000 0.0000
vn -0.9956 0.0938 0.0060
vn 0.0000 -0.0321 -0.9995
vn 0.0000 -0.0426 0.9991
vn 0.0000 0.2358 -0.9718
vn 0.9956 0.0938 0.0060
vn 0.9916 0.1024 -0.0789
vn 0.9942 0.1034 -0.0311
vn -0.9942 0.1034 -0.0311
vn 0.0000 0.2607 0.9654
vn 0.0000 0.7923 -0.6101
vn -0.9916 0.1024 -0.0789
vn 0.0000 0.7074 0.7068
vn 0.0000 -0.5025 -0.8646
vn 0.0000 0.2870 0.9579
vn 0.0000 0.2343 0.9722
vn 0.1030 0.2655 0.9586
vn -0.1030 0.2655 0.9586
vn 0.9977 0.0654 -0.0155
vn -0.9976 0.0681 -0.0108
vn 0.0000 -0.9469 0.3215
vn 0.9976 0.0681 -0.0108
vn 0.0000 0.9864 -0.1643
vn 0.0000 0.7388 -0.6739
vn 0.9979 0.0554 -0.0326
vn -0.9979 0.0554 -0.0326
vn 0.0000 -0.6440 0.7650
vn -0.9977 0.0654 -0.0155
vn 0.0000 0.7210 0.6929
vn 0.0000 0.4597 0.8881
vn 0.0000 0.7790 0.6270
vn 0.0000 0.9348 0.3552
vn 0.0000 0.9921 0.1252
vn 0.0000 0.9977 -0.0680
vn 0.0000 0.9707 -0.2401
vn 0.0000 0.9144 -0.4049
vn 0.0000 0.8194 -0.5733
vn 0.0000 0.6614 -0.7500
vn 0.0000 0.3969 -0.9179
vn 0.0000 -0.0073 -1.0000
vn 0.0000 -0.4597 -0.8881
vn 0.0000 -0.7790 -0.6270
vn 0.0000 -0.9347 -0.3554
vn 0.0000 -0.9921 -0.1252
vn 0.0000 -0.9977 0.0682
vn 0.0000 -0.9707 0.2401
vn 0.0000 -0.9144 0.4049
vn 0.0000 -0.8194 0.5733
vn 0.0000 -0.6614 0.7500
vn 1.0000 0.0006 0.0001
vn 0.0000 -0.3969 0.9179
vn 0.0000 0.0073 1.0000
vn -1.0000 -0.0006 -0.0001
vn -1.0000 -0.0001 -0.0006
vn 0.0000 -0.9487 0.3163
vn 0.0000 -0.9956 -0.0934
vn 1.0000 0.0001 0.0006
vn 0.0000 -0.9179 -0.3969
vn 0.0000 -0.7987 -0.6018
vn 0.0000 -0.6679 -0.7442
vn 0.0000 -0.5287 -0.8488
vn 0.0000 -0.3735 -0.9276
vn 0.0000 -0.1879 -0.9822
vn 0.0000 0.0487 -0.9988
vn 0.0000 0.3552 -0.9348
vn 0.0000 0.7023 -0.7119
vn 0.0000 0.9487 -0.3163
vn 0.0000 0.9956 0.0934
vn 0.0000 0.9179 0.3969
vn 0.0000 0.7987 0.6018
vn 0.0000 0.6679 0.7442
vn 0.0000 0.5287 0.8488
vn 0.0000 0.3734 0.9277
vn 0.0000 0.1879 0.9822
vn 0.0000 -0.0486 0.9988
vn 0.0000 -0.3552 0.9348
vn 0.0000 -0.7023 0.7119
usemtl Material.003
s off
f 1/1/1 2/2/1 4/3/1 3/4/1
f 215/5/2 216/6/2 8/7/2 7/8/2
f 7/8/3 8/7/3 6/9/3 5/10/3
f 1/1/4 217/11/4 5/10/4 6/9/4 218/12/4 2/2/4
f 215/5/5 7/8/5 5/10/5 217/11/5
f 4/3/6 2/2/6 9/13/6 10/14/6
f 219/15/7 10/14/7 14/16/7 220/17/7
f 2/2/8 218/12/8 6/9/8 12/18/8 21/19/8 22/20/8 23/21/8 24/22/8 9/13/8
f 216/23/9 4/3/9 10/14/9 219/15/9
f 6/9/10 8/7/10 11/24/10 12/18/10
f 16/25/11 15/26/11 19/27/11 20/28/11
f 12/18/12 11/24/12 15/26/12 16/25/12 29/29/12 30/30/12 31/31/12 32/32/12
f 10/14/13 9/13/13 33/33/13 34/34/13 35/35/13 36/36/13 13/37/13 14/16/13
f 52/38/14 29/29/14 16/25/14 25/39/14
f 221/40/15 18/41/15 17/42/15 222/43/15
f 14/16/16 13/37/16 17/42/16 18/41/16
f 13/37/17 28/44/17 27/45/17 26/46/17 25/39/17 16/25/17 20/28/17 222/43/17 17/42/17
f 220/17/18 14/16/18 18/41/18 221/40/18
f 36/36/14 40/47/14 28/44/14 13/37/14
f 25/39/19 26/46/19 54/48/19 53/49/19
f 39/50/20 43/51/20 59/52/20 58/53/20
f 51/54/21 52/38/21 61/55/21 62/56/21
f 9/13/14 24/22/14 37/57/14 33/33/14
f 33/33/14 37/57/14 38/58/14 34/34/14
f 34/34/14 38/58/14 39/50/14 35/35/14
f 35/35/14 39/50/14 40/47/14 36/36/14
f 24/22/14 23/21/14 41/59/14 37/57/14
f 37/57/14 41/59/14 42/60/14 38/58/14
f 38/58/14 42/60/14 43/51/14 39/50/14
f 52/38/21 25/39/21 53/49/21 61/55/21
f 23/21/14 22/20/14 45/61/14 41/59/14
f 41/59/14 45/61/14 46/62/14 42/60/14
f 42/60/14 46/62/14 47/63/14 43/51/14
f 27/45/19 28/44/19 56/64/19 55/65/19
f 22/20/14 21/19/14 49/66/14 45/61/14
f 45/61/14 49/66/14 50/67/14 46/62/14
f 46/62/14 50/67/14 51/54/14 47/63/14
f 40/47/22 39/50/22 58/53/22 57/68/22
f 21/19/14 12/18/14 32/32/14 49/66/14
f 49/66/14 32/32/14 31/31/14 50/67/14
f 50/67/14 31/31/14 30/30/14 51/54/14
f 51/54/14 30/30/14 29/29/14 52/38/14
f 62/56/23 61/55/23 69/69/23 70/70/23
f 56/64/24 57/68/24 65/71/24 64/72/24
f 59/52/25 60/73/25 68/74/25 67/75/25
f 61/55/26 53/49/26 48/76/26 69/69/26
f 55/65/27 56/64/27 64/72/27 63/77/27
f 60/73/25 62/56/25 70/70/25 68/74/25
f 43/51/20 47/63/20 60/73/20 59/52/20
f 47/63/20 51/54/20 62/56/20 60/73/20
f 28/44/22 40/47/22 57/68/22 56/64/22
f 26/46/19 27/45/19 55/65/19 54/48/19
f 48/76/28 44/78/28 72/79/28 71/80/28
f 70/70/29 69/69/29 81/81/29 82/82/29
f 64/72/30 65/71/30 75/83/30 74/84/30
f 67/75/31 68/74/31 80/85/31 78/86/31
f 69/69/29 48/76/29 71/80/29 81/81/29
f 63/77/28 64/72/28 74/84/28 73/87/28
f 53/49/27 54/48/27 44/78/27 48/76/27
f 57/68/32 58/53/32 66/88/32 65/71/32
f 58/53/25 59/52/25 67/75/25 66/88/25
f 54/48/27 55/65/27 63/77/27 44/78/27
f 75/83/33 77/89/33 73/87/33 74/84/33
f 77/90/33 79/91/33 72/92/33 73/93/33
f 79/94/33 81/81/33 71/80/33 72/79/33
f 76/95/33 78/96/33 77/90/33 75/97/33
f 78/86/33 80/85/33 79/94/33 77/89/33
f 80/85/33 82/82/33 81/81/33 79/94/33
f 65/71/30 66/88/30 76/98/30 75/83/30
f 66/88/31 67/75/31 78/86/31 76/98/31
f 44/78/28 63/77/28 73/87/28 72/79/28
f 68/74/31 70/70/31 82/82/31 80/85/31
f 15/26/18 220/99/18 221/100/18 19/27/18
f 19/27/15 221/100/15 222/43/15 20/28/15
f 8/7/9 216/6/9 219/101/9 11/24/9
f 11/24/7 219/101/7 220/99/7 15/26/7
f 3/4/5 215/102/5 217/11/5 1/1/5
f 3/4/2 4/3/2 216/23/2 215/102/2
usemtl Material.001
f 193/103/34 84/104/34 86/105/34 194/106/34
f 194/106/35 86/105/35 88/107/35 195/108/35
f 195/108/36 88/107/36 90/109/36 196/110/36
f 196/110/37 90/109/37 92/111/37 197/112/37
f 197/112/38 92/111/38 94/113/38 198/114/38
f 198/114/39 94/113/39 96/115/39 199/116/39
f 199/116/40 96/115/40 98/117/40 200/118/40
f 200/118/41 98/117/41 100/119/41 201/120/41
f 201/120/42 100/119/42 102/121/42 202/122/42
f 202/122/43 102/121/43 104/123/43 203/124/43
f 203/124/44 104/123/44 106/125/44 204/126/44
f 204/126/45 106/125/45 108/127/45 205/128/45
f 205/128/46 108/127/46 110/129/46 206/130/46
f 206/130/47 110/129/47 112/131/47 207/132/47
f 207/132/48 112/131/48 114/133/48 208/134/48
f 208/134/49 114/133/49 116/135/49 209/136/49
f 209/136/50 116/135/50 118/137/50 210/138/50
f 210/138/51 118/137/51 120/139/51 211/140/51
f 211/140/52 120/139/52 122/141/52 212/142/52
f 212/142/53 122/141/53 124/143/53 213/144/53
f 86/105/54 84/104/54 126/145/54 124/143/54 122/141/54 120/139/54 118/137/54 116/135/54 114/133/54 112/131/54 110/129/54 108/127/54 106/125/54 104/123/54 102/121/54 100/119/54 98/117/54 96/115/54 94/113/54 92/111/54 90/109/54 88/107/54
f 213/144/55 124/143/55 126/145/55 214/146/55
f 214/146/56 126/145/56 84/104/56 193/103/56
f 83/147/57 85/148/57 87/149/57 89/150/57 91/151/57 93/152/57 95/153/57 97/154/57 99/155/57 101/156/57 103/157/57 105/158/57 107/159/57 109/160/57 111/161/57 113/162/57 115/163/57 117/164/57 119/165/57 121/166/57 123/167/57 125/168/57
f 170/169/58 168/170/58 166/171/58 164/172/58 162/173/58 160/174/58 158/175/58 156/176/58 154/177/58 152/178/58 150/179/58 148/180/58 146/181/58 144/182/58 142/183/58 140/184/58 138/185/58 136/186/58 134/187/58 132/188/58 130/189/58 128/190/58
f 171/191/59 127/192/59 169/193/59 192/194/59
f 172/195/60 129/196/60 127/192/60 171/191/60
f 167/197/61 169/193/61 127/192/61 129/196/61 131/198/61 133/199/61 135/200/61 137/201/61 139/202/61 141/203/61 143/204/61 145/205/61 147/206/61 149/207/61 151/208/61 153/209/61 155/210/61 157/211/61 159/212/61 161/213/61 163/214/61 165/215/61
f 173/216/62 131/198/62 129/196/62 172/195/62
f 174/217/63 133/199/63 131/198/63 173/216/63
f 175/218/64 135/200/64 133/199/64 174/217/64
f 176/219/65 137/201/65 135/200/65 175/218/65
f 177/220/66 139/202/66 137/201/66 176/219/66
f 178/221/67 141/203/67 139/202/67 177/220/67
f 179/222/68 143/204/68 141/203/68 178/221/68
f 180/223/69 145/205/69 143/204/69 179/222/69
f 181/224/70 147/206/70 145/205/70 180/223/70
f 182/225/71 149/207/71 147/206/71 181/224/71
f 183/226/72 151/208/72 149/207/72 182/225/72
f 184/227/73 153/209/73 151/208/73 183/226/73
f 185/228/74 155/210/74 153/209/74 184/227/74
f 186/229/75 157/211/75 155/210/75 185/228/75
f 187/230/76 159/212/76 157/211/76 186/229/76
f 188/231/77 161/213/77 159/212/77 187/230/77
f 189/232/78 163/214/78 161/213/78 188/231/78
f 190/233/79 165/215/79 163/214/79 189/232/79
f 191/234/80 167/197/80 165/215/80 190/233/80
f 192/194/81 169/193/81 167/197/81 191/234/81
f 170/169/81 192/235/81 191/236/81 168/170/81
f 168/170/80 191/236/80 190/237/80 166/171/80
f 166/171/79 190/237/79 189/238/79 164/172/79
f 164/172/78 189/238/78 188/239/78 162/173/78
f 162/173/77 188/239/77 187/240/77 160/174/77
f 160/174/76 187/240/76 186/241/76 158/175/76
f 158/175/75 186/241/75 185/242/75 156/176/75
f 156/176/74 185/242/74 184/243/74 154/177/74
f 154/177/73 184/243/73 183/244/73 152/178/73
f 152/178/72 183/244/72 182/245/72 150/179/72
f 150/179/71 182/245/71 181/246/71 148/180/71
f 148/180/70 181/246/70 180/247/70 146/181/70
f 146/181/69 180/247/69 179/248/69 144/182/69
f 144/182/68 179/248/68 178/249/68 142/183/68
f 142/183/67 178/249/67 177/250/67 140/184/67
f 140/184/66 177/250/66 176/251/66 138/185/66
f 138/185/65 176/251/65 175/252/65 136/186/65
f 136/186/64 175/252/64 174/253/64 134/187/64
f 134/187/63 174/253/63 173/254/63 132/188/63
f 132/188/62 173/254/62 172/255/62 130/189/62
f 130/189/60 172/255/60 171/256/60 128/190/60
f 128/190/59 171/256/59 192/235/59 170/169/59
f 125/168/56 214/257/56 193/258/56 83/147/56
f 123/167/55 213/259/55 214/257/55 125/168/55
f 121/166/53 212/260/53 213/259/53 123/167/53
f 119/165/52 211/261/52 212/260/52 121/166/52
f 117/164/51 210/262/51 211/261/51 119/165/51
f 115/163/50 209/263/50 210/262/50 117/164/50
f 113/162/49 208/264/49 209/263/49 115/163/49
f 111/161/48 207/265/48 208/264/48 113/162/48
f 109/160/47 206/266/47 207/265/47 111/161/47
f 107/159/46 205/267/46 206/266/46 109/160/46
f 105/158/45 204/268/45 205/267/45 107/159/45
f 103/157/44 203/269/44 204/268/44 105/158/44
f 101/156/43 202/270/43 203/269/43 103/157/43
f 99/155/42 201/271/42 202/270/42 101/156/42
f 97/154/41 200/272/41 201/271/41 99/155/41
f 95/153/40 199/273/40 200/272/40 97/154/40
f 93/152/39 198/274/39 199/273/39 95/153/39
f 91/151/38 197/275/38 198/274/38 93/152/38
f 89/150/37 196/276/37 197/275/37 91/151/37
f 87/149/36 195/277/36 196/276/36 89/150/36
f 85/148/35 194/278/35 195/277/35 87/149/35
f 83/147/34 193/258/34 194/278/34 85/148/34
